<svg width="980" height="980" viewBox="0 0 980 980" fill="none" xmlns="http://www.w3.org/2000/svg">
  <defs>
    <radialGradient id="g1" cx="0" cy="0" r="1" gradientUnits="userSpaceOnUse" gradientTransform="translate(260 240) rotate(55) scale(780)">
      <stop stop-color="#22D3EE" stop-opacity="0.42"/>
      <stop offset="0.55" stop-color="#3B82F6" stop-opacity="0.18"/>
      <stop offset="1" stop-color="#A855F7" stop-opacity="0"/>
    </radialGradient>
    <linearGradient id="g2" x1="160" y1="200" x2="820" y2="780" gradientUnits="userSpaceOnUse">
      <stop stop-color="#22D3EE" stop-opacity="0.75"/>
      <stop offset="0.5" stop-color="#3B82F6" stop-opacity="0.7"/>
      <stop offset="1" stop-color="#A855F7" stop-opacity="0.75"/>
    </linearGradient>
    <filter id="blur" x="-40%" y="-40%" width="180%" height="180%">
      <feGaussianBlur stdDeviation="22"/>
    </filter>
  </defs>

  <rect width="980" height="980" rx="28" fill="url(#g1)"/>

  <g filter="url(#blur)">
    <circle cx="520" cy="480" r="220" fill="url(#g2)" fill-opacity="0.34"/>
    <circle cx="350" cy="370" r="140" fill="#22D3EE" fill-opacity="0.18"/>
    <circle cx="680" cy="360" r="120" fill="#A855F7" fill-opacity="0.16"/>
    <circle cx="640" cy="660" r="160" fill="#3B82F6" fill-opacity="0.16"/>
  </g>

  <g opacity="0.85">
    <rect x="260" y="270" width="460" height="440" rx="26" fill="#FFFFFF" fill-opacity="0.06" stroke="#FFFFFF" stroke-opacity="0.14"/>
    <path d="M340 380H640" stroke="#FFFFFF" stroke-opacity="0.26" stroke-width="2"/>
    <path d="M340 438H600" stroke="#FFFFFF" stroke-opacity="0.22" stroke-width="2"/>
    <path d="M340 496H572" stroke="#FFFFFF" stroke-opacity="0.18" stroke-width="2"/>
    <path d="M340 556H640" stroke="#FFFFFF" stroke-opacity="0.20" stroke-width="2"/>
    <path d="M340 612H560" stroke="#FFFFFF" stroke-opacity="0.16" stroke-width="2"/>

    <circle cx="330" cy="320" r="8" fill="#22D3EE" fill-opacity="0.85"/>
    <circle cx="360" cy="320" r="8" fill="#3B82F6" fill-opacity="0.85"/>
    <circle cx="390" cy="320" r="8" fill="#A855F7" fill-opacity="0.85"/>

    <path d="M700 450L764 496L700 542" stroke="url(#g2)" stroke-width="10" stroke-linecap="round" stroke-linejoin="round"/>
    <path d="M280 450L216 496L280 542" stroke="url(#g2)" stroke-width="10" stroke-linecap="round" stroke-linejoin="round"/>
  </g>
</svg>
